<?xml version="1.0" encoding="UTF-8"?>
<svg width="33px" height="29px" viewBox="0 0 33 29" version="1.1" xmlns="http://www.w3.org/2000/svg" xmlns:xlink="http://www.w3.org/1999/xlink">
    <!-- Generator: Sketch 48.2 (47327) - http://www.bohemiancoding.com/sketch -->
    <title>speech-bubble (1)</title>
    <desc>Created with Sketch.</desc>
    <defs></defs>
    <g id="iPhone-8" stroke="none" stroke-width="1" fill="none" fill-rule="evenodd" transform="translate(-302.000000, -580.000000)">
        <g id="speech-bubble-(1)" transform="translate(302.000000, 580.000000)" fill="#444444" fill-rule="nonzero">
            <path d="M3.77715877,0 C1.69637883,0 0,1.71833041 0,3.82603619 L0,19.0455342 C0,21.1532399 1.69637883,22.8715703 3.77715877,22.8715703 L20.7075209,22.8715703 L25.4791086,28.466725 C25.7715877,28.8053123 26.1810585,29 26.6239554,29 C27.45961,29 28.1448468,28.3143608 28.1448468,27.4678926 L28.1448468,22.880035 L29.2228412,22.880035 C31.3036212,22.880035 33,21.1617046 33,19.0539988 L33,3.82603619 C33,1.71833041 31.3036212,0 29.2228412,0 L3.77715877,0 Z M30.9442897,3.82603619 L30.9442897,19.0455342 C30.9442897,20.0105079 30.1671309,20.7977233 29.2144847,20.7977233 L27.1169916,20.7977233 C26.5487465,20.7977233 26.0891365,21.2632808 26.0891365,21.8388792 L26.0891365,26.0119673 L21.9442897,21.1617046 C21.7520891,20.9331582 21.4679666,20.806188 21.1671309,20.806188 L3.77715877,20.806188 C2.82451253,20.806188 2.04735376,20.0189726 2.04735376,19.0539988 L2.04735376,3.82603619 C2.04735376,2.86106246 2.82451253,2.07384705 3.77715877,2.07384705 L29.2144847,2.07384705 C30.1671309,2.07384705 30.9442897,2.86106246 30.9442897,3.82603619 Z" id="Shape"></path>
            <circle id="Oval" cx="16" cy="12" r="1"></circle>
            <circle id="Oval" cx="12" cy="12" r="1"></circle>
            <circle id="Oval" cx="20" cy="12" r="1"></circle>
        </g>
    </g>
</svg>