<?xml version="1.0" encoding="UTF-8"?>
<svg width="23px" height="22px" viewBox="0 0 23 22" version="1.1" xmlns="http://www.w3.org/2000/svg" xmlns:xlink="http://www.w3.org/1999/xlink">
    <!-- Generator: Sketch 48.2 (47327) - http://www.bohemiancoding.com/sketch -->
    <title>Shape</title>
    <desc>Created with Sketch.</desc>
    <defs></defs>
    <g id="iPhone-8" stroke="none" stroke-width="1" fill="none" fill-rule="evenodd" transform="translate(-143.000000, -675.000000)">
        <path d="M165.480863,684.936243 C165.951727,684.482514 166.117959,683.816607 165.914804,683.198397 C165.711597,682.580187 165.181158,682.138107 164.530451,682.04467 L158.840572,681.227336 C158.728887,681.211319 158.632337,681.141982 158.582361,681.041868 L156.037787,675.945013 C155.746818,675.362099 155.157565,675 154.500001,675 C153.842437,675 153.253185,675.362099 152.962215,675.945013 L150.417641,681.041918 C150.367614,681.141982 150.271115,681.211319 150.15938,681.227386 L144.469602,682.04467 C143.818895,682.138107 143.288506,682.580187 143.085249,683.198397 C142.881992,683.816607 143.048275,684.482514 143.51919,684.936243 L147.636391,688.903621 C147.717196,688.981543 147.754119,689.093758 147.735023,689.203764 L146.763076,694.80576 C146.65195,695.446463 146.913309,696.081743 147.445272,696.463825 C147.977235,696.846008 148.669386,696.895362 149.251325,696.59296 L154.340422,693.948058 C154.440375,693.896093 154.559678,693.896093 154.659681,693.948058 L159.74883,696.59296 C160.001961,696.724505 160.275866,696.789524 160.54845,696.789474 C160.902448,696.789474 161.254212,696.67982 161.55473,696.463775 C162.086693,696.081643 162.348103,695.446312 162.236926,694.805709 L161.264979,689.203713 C161.245934,689.093708 161.282806,688.981493 161.363611,688.903571 L165.480863,684.936243 Z" id="Shape" fill="#4A90E2" fill-rule="nonzero"></path>
    </g>
</svg>