<?xml version="1.0" encoding="UTF-8"?>
<svg width="24px" height="22px" viewBox="0 0 24 22" version="1.1" xmlns="http://www.w3.org/2000/svg" xmlns:xlink="http://www.w3.org/1999/xlink">
    <!-- Generator: Sketch 48.2 (47327) - http://www.bohemiancoding.com/sketch -->
    <title>Shape</title>
    <desc>Created with Sketch.</desc>
    <defs></defs>
    <g id="iPhone-8" stroke="none" stroke-width="1" fill="none" fill-rule="evenodd" transform="translate(-114.000000, -675.000000)">
        <path d="M136.730863,684.936243 C137.201727,684.482514 137.367959,683.816607 137.164804,683.198397 C136.961597,682.580187 136.431158,682.138107 135.780451,682.04467 L130.090572,681.227336 C129.978887,681.211319 129.882337,681.141982 129.832361,681.041868 L127.287787,675.945013 C126.996818,675.362099 126.407565,675 125.750001,675 C125.092437,675 124.503185,675.362099 124.212215,675.945013 L121.667641,681.041918 C121.617614,681.141982 121.521115,681.211319 121.40938,681.227386 L115.719602,682.04467 C115.068895,682.138107 114.538506,682.580187 114.335249,683.198397 C114.131992,683.816607 114.298275,684.482514 114.76919,684.936243 L118.886391,688.903621 C118.967196,688.981543 119.004119,689.093758 118.985023,689.203764 L118.013076,694.80576 C117.90195,695.446463 118.163309,696.081743 118.695272,696.463825 C119.227235,696.846008 119.919386,696.895362 120.501325,696.59296 L125.590422,693.948058 C125.690375,693.896093 125.809678,693.896093 125.909681,693.948058 L130.99883,696.59296 C131.251961,696.724505 131.525866,696.789524 131.79845,696.789474 C132.152448,696.789474 132.504212,696.67982 132.80473,696.463775 C133.336693,696.081643 133.598103,695.446312 133.486926,694.805709 L132.514979,689.203713 C132.495934,689.093708 132.532806,688.981493 132.613611,688.903571 L136.730863,684.936243 Z" id="Shape" fill="#B2B2B2" fill-rule="nonzero"></path>
    </g>
</svg>