<?xml version="1.0" encoding="UTF-8"?>
<svg width="32px" height="32px" viewBox="0 0 32 32" version="1.1" xmlns="http://www.w3.org/2000/svg" xmlns:xlink="http://www.w3.org/1999/xlink">
    <!-- Generator: Sketch 48.2 (47327) - http://www.bohemiancoding.com/sketch -->
    <title>user</title>
    <desc>Created with Sketch.</desc>
    <defs></defs>
    <g id="Page-1" stroke="none" stroke-width="1" fill="none" fill-rule="evenodd">
        <g id="user" fill="#4A90E2" fill-rule="nonzero">
            <path d="M16,22 C20.963,22 25,17.064 25,11 C25,4.936 20.962,0 16,0 C13.553,0 11.266,1.174 9.562,3.305 C7.909,5.37 7,8.104 7,11.001 C7,17.064 11.037,22 16,22 Z M16,2.001 C19.859,2.001 23,6.038 23,11.001 C23,15.963 19.859,20.001 16,20.001 C12.141,20.001 9,15.963 8.999,11.001 C8.999,6.038 12.14,2.001 16,2.001 Z M23,20 C22.447,20 22,20.447 22,21 C22,21.553 22.447,22 23,22 C26.859,22 30,25.141 30,29 C30,29.551 29.551,30 29,30 L3,30 C2.449,30 2,29.551 2,29 C2,25.141 5.141,22 9,22 C9.553,22 10,21.553 10,21 C10,20.447 9.553,20 9,20 C4.037,20 0,24.037 0,29 C0,30.654 1.346,32 3,32 L29,32 C30.654,32 32,30.654 32,29 C32,24.038 27.963,20 23,20 Z" id="Shape"></path>
        </g>
    </g>
</svg>